<svg xmlns="http://www.w3.org/2000/svg" viewBox="0 0 24 24" fill="#4479A1">
  <path d="M16.405 5.501c-.115 0-.193.014-.274.033v.013h.014c.054.104.146.18.214.273.054.107.1.214.154.32l.014-.015c.094-.066.14-.172.14-.333-.04-.047-.046-.094-.08-.14-.04-.067-.126-.1-.18-.153zM5.77 18.695h-.927a50.854 50.854 0 0 0-.27-4.41h-.008L3.33 18.695H2.56l-1.235-4.41h-.008c-.04 1.36-.068 2.887-.08 4.41H.492c.027-1.588.107-3.22.24-4.68h1.377l1.207 4.207h.008l1.207-4.207h1.377c.133 1.46.213 3.092.24 4.68zm2.587-4.993c-.077-.77-.16-1.61-.24-2.51h-.88c.08.9.163 1.74.24 2.51h.88zm-.24 1.047h-.88c.08.9.163 1.74.24 2.51h.88c-.077-.77-.16-1.61-.24-2.51zm2.32-2.51c-.133 1.46-.213 3.092-.24 4.68h.735c.027-1.588.107-3.22.24-4.68h-.735zm1.44 4.68c.027-1.588.107-3.22.24-4.68h-.735c-.133 1.46-.213 3.092-.24 4.68h.735z" fill="#4479A1"/>
</svg>
