<svg xmlns="http://www.w3.org/2000/svg" viewBox="0 0 24 24" fill="#589632">
  <circle cx="12" cy="12" r="10" fill="#589632"/>
  <path d="M12 4a8 8 0 1 0 8 8 8 8 0 0 0-8-8zm0 14a6 6 0 1 1 6-6 6 6 0 0 1-6 6z" fill="white"/>
  <path d="M12 8a4 4 0 1 0 4 4 4 4 0 0 0-4-4zm0 6a2 2 0 1 1 2-2 2 2 0 0 1-2 2z" fill="#589632"/>
  <rect x="11" y="6" width="2" height="4" fill="white"/>
  <rect x="11" y="14" width="2" height="4" fill="white"/>
  <rect x="6" y="11" width="4" height="2" fill="white"/>
  <rect x="14" y="11" width="4" height="2" fill="white"/>
</svg>
